<svg width="100" height="100" viewBox="0 0 100 100" fill="none" xmlns="http://www.w3.org/2000/svg">
    <path d="M9.012 51.835c4.989 8.924 12.005 14.87 22.5 15.927-.496-.35-.997-.693-1.489-1.048-5.785-4.167-10.088-9.436-11.794-16.492-1.918-7.926.211-14.968 5.022-21.335 2.836-3.754 6.455-6.619 10.284-9.305 3.218-2.256 6.372-4.662 9.257-7.323 3.214-2.965 5.15-6.788 5.874-11.16.04-.243.079-.488.136-.727.017-.07.093-.127.285-.372 1.03.543 2.145 1.037 3.165 1.684 11.42 7.233 13.816 22.05 5.302 32.772-2.148 2.704-4.359 5.359-6.539 8.039-.278.342-.542.697-1.044 1.344 5.273-1.164 9.512-3.478 12.987-7.122 3.478-3.646 5.323-8.127 6.145-13.083 12.873 6.314 25.326 24.858 19.359 46.449-6.1 22.072-29.29 34.907-51.072 28.08C15.323 91.249 5.555 70.687 9.012 51.836z" fill="#D33458"/>
</svg>
