<svg width="100" height="100" viewBox="0 0 100 100" fill="none" xmlns="http://www.w3.org/2000/svg">
    <g clip-path="url(#1m0nxxtdga)" fill="#24A48D">
        <path d="M32.057 95.23c24.57-6.684 42.928-25.51 49.765-44.558-4.233-2.413-7.007-3.737-12.82-5.356-7.37 21.574-25.768 38.214-50.12 42.067a48.514 48.514 0 0 0 13.175 7.847z"/>
        <path d="M39.031 45.276a55.81 55.81 0 0 0 10.755 18.142 55.711 55.711 0 0 0 12.05-19.64 55.777 55.777 0 0 0-22.805 1.498z"/>
        <path d="M44.458 68.368C29.81 51.898 23.962 28.4 32.142 5.207a48.523 48.523 0 0 0-13.844 8.405 74.226 74.226 0 0 0 15.638 61.42c3.627-1.798 6.095-3.078 10.522-6.664z"/>
        <path d="M98.481 50.236c0-4.124-.572-8.104-1.541-11.928-18.5-13.47-40.703-17.163-61.243-12.146l-.01.145c0 4.086.476 8.09 1.32 11.996 20.835-5.835 44.144-.93 61.28 15.748.102-1.265.194-2.53.194-3.815z"/>
        <path d="M36.249 18.564c18.45-3.945 38.083-1.633 56.252 8.361A48.45 48.45 0 0 0 74.698 8.53 48.476 48.476 0 0 0 50 1.769a48.4 48.4 0 0 0-8.97.863 56.138 56.138 0 0 0-4.781 15.932zm51.787 36.197C81.16 72.311 65.58 89.47 44.885 98.418c24.23 2.534 45.716-13.03 51.83-35.398a56.195 56.195 0 0 0-8.68-8.259zm-60.937 23.12A81.25 81.25 0 0 1 9.715 23.266a48.232 48.232 0 0 0-8.2 26.963c0 11.58 4.079 22.2 10.857 30.536A55.704 55.704 0 0 0 27.1 77.88z"/>
    </g>
    <defs>
        <clipPath id="1m0nxxtdga">
            <path fill="#fff" d="M0 0h100v100H0z"/>
        </clipPath>
    </defs>
</svg>
