<svg width="119" height="116" viewBox="0 0 119 116" fill="none" xmlns="http://www.w3.org/2000/svg">
    <path fill-rule="evenodd" clip-rule="evenodd" d="M106.804 15.92c-4.185 6.05-7.806 13.616-9.278 22.128-1.925 11.135-.233 24.203 9.244 38.024 7-8.065 11.235-18.586 11.235-30.096 0-11.49-4.222-21.996-11.201-30.056zm-5.815-5.633c-5.089 7.061-9.562 16.08-11.346 26.398-2.356 13.625.043 29.176 11.303 45.016a45.904 45.904 0 0 1-28.99 10.252 45.903 45.903 0 0 1-28.994-10.255C54.221 65.859 56.62 50.309 54.263 36.685 52.48 26.369 48.007 17.35 42.92 10.29A45.903 45.903 0 0 1 71.956 0a45.904 45.904 0 0 1 29.033 10.287zM46.38 38.047c-1.471-8.51-5.092-16.075-9.275-22.124-6.978 8.06-11.199 18.564-11.199 30.053 0 11.508 4.235 22.028 11.233 30.092 9.475-13.82 11.166-26.886 9.241-38.02z" fill="#CA507A"/>
    <g filter="url(#1bvytmhpma)" fill="#CA507A">
        <path d="M7.368 34.966c-3.925-6.36-1.425-14.714 5.348-17.872 6.773-3.159 14.793.29 17.16 7.377l22.777 68.204a4.17 4.17 0 0 1-2.194 5.102 4.183 4.183 0 0 1-5.327-1.595L7.368 34.966z"/>
        <rect width="17.269" height="6.463" rx="3.232" transform="rotate(-25 242.395 -43.35) skewX(.07)"/>
    </g>
    <defs>
        <filter id="1bvytmhpma" x=".361" y="10.774" width="69.994" height="104.397" filterUnits="userSpaceOnUse" color-interpolation-filters="sRGB">
            <feFlood flood-opacity="0" result="BackgroundImageFix"/>
            <feColorMatrix in="SourceAlpha" values="0 0 0 0 0 0 0 0 0 0 0 0 0 0 0 0 0 0 127 0" result="hardAlpha"/>
            <feOffset dx="3.429" dy="3.429"/>
            <feGaussianBlur stdDeviation="4.286"/>
            <feComposite in2="hardAlpha" operator="out"/>
            <feColorMatrix values="0 0 0 0 0 0 0 0 0 0 0 0 0 0 0 0 0 0 0.3 0"/>
            <feBlend in2="BackgroundImageFix" result="effect1_dropShadow_138_62002"/>
            <feBlend in="SourceGraphic" in2="effect1_dropShadow_138_62002" result="shape"/>
        </filter>
    </defs>
</svg>
