<svg width="101" height="101" viewBox="0 0 101 101" fill="none" xmlns="http://www.w3.org/2000/svg">
    <path fill-rule="evenodd" clip-rule="evenodd" d="M85.684 85.136c8.827-8.924 14.315-21.148 14.443-34.653l-10.432 11.66-5.118 16.31 1.108 6.683zM81.272 89.1l-1.027-6.195-18.63 4.52-14.543 12.487c.99.058 1.988.088 2.993.088a49.893 49.893 0 0 0 31.207-10.9zm-37.37 6.944 14.32-12.298-3.745-15.617-25.39-6.509-10.259 8.45 3.992 18.395 21.081 7.579zM1.608 56.91l12.417 14.624 3.59 16.544C8.522 80.34 2.234 69.41.49 57.025l1.12-.115zm.264-5.05 4.071-20.216.187-5.64A49.726 49.726 0 0 0 0 50c0 .686.014 1.369.041 2.048l1.832-.188zM23.72 30H11.002l.39-11.756a50.301 50.301 0 0 1 12.754-11.03l17.275.694.69 7.547L23.72 30zM50.065 0C44.468 0 39.086.917 34.06 2.609l9.862.396 17.433-1.728A50.281 50.281 0 0 0 50.065 0zm44.973 28.005a49.603 49.603 0 0 1 4.666 15.45l-11.33 12.663-11.803-8.382-4.868-21.978 6.15-6.25 17.185 8.497zm-4.924-8.014-11.104-5.49-13.177-11.97c9.778 3.237 18.22 9.405 24.28 17.46zM71.62 48.507l-4.967-22.426-22.82-5.614L26.482 34.19l3.952 22.613 26.188 6.713 15-15.01z" fill="#7B35D5"/>
    <path opacity=".5" d="m26.922 33.825 16.541-13.05a1 1 0 0 1 .856-.187l21.71 5.289a1 1 0 0 1 .74.755L71.511 48a1 1 0 0 1-.27.923L57.016 63.15a1 1 0 0 1-.955.262l-25.003-6.39a1 1 0 0 1-.737-.797l-3.764-21.442a1 1 0 0 1 .366-.958zM71.664 25.762l6.207-6.282 17.192 8.533c3.104 6.247 4.38 12.913 4.63 15.466L88.382 56.142l-11.838-8.408-4.88-21.972zM42.106 15.477l-.71-7.563-17.26-.717c-5.974 3.55-10.986 8.797-12.744 10.976l-.376 11.868h12.682l18.408-14.564zM18.844 70.05l10.212-8.464 25.427 6.463 3.835 15.673-14.38 12.338-21.093-7.503-4.001-18.506zM61.636 87.355l-14.53 12.551c16.013 1.186 29.473-6.689 34.2-10.774l-1.087-6.227-18.583 4.45zM84.586 78.484l1.092 6.555c12.124-11.685 14.676-27.896 14.437-34.541L89.671 62.171l-5.085 16.313zM1.611 56.91l-1.119.121c2.213 16.2 12.344 27.448 17.133 31.046l-3.522-16.503L1.611 56.91z" fill="#7B35D5"/>
</svg>
